<svg width="32" height="32" viewBox="0 0 32 32" fill="none" xmlns="http://www.w3.org/2000/svg">
<path d="M28 28C28 28.2652 27.8946 28.5196 27.7071 28.7071C27.5196 28.8946 27.2652 29 27 29C25.9395 28.9988 24.9228 28.577 24.1729 27.8271C23.423 27.0772 23.0012 26.0605 23 25V24C22.9994 23.4698 22.7885 22.9614 22.4135 22.5865C22.0386 22.2115 21.5302 22.0006 21 22H19.5V27C19.5006 27.5303 19.7115 28.0386 20.0865 28.4135C20.4614 28.7885 20.9698 28.9994 21.5 29C21.7652 29 22.0196 29.1054 22.2071 29.2929C22.3946 29.4804 22.5 29.7348 22.5 30C22.5 30.2652 22.3946 30.5196 22.2071 30.7071C22.0196 30.8946 21.7652 31 21.5 31C20.4395 30.9988 19.4228 30.577 18.6729 29.8271C17.923 29.0772 17.5012 28.0605 17.5 27V22H14.5V27C14.4988 28.0605 14.077 29.0772 13.3271 29.8271C12.5772 30.577 11.5605 30.9988 10.5 31C10.2348 31 9.98043 30.8946 9.79289 30.7071C9.60536 30.5196 9.5 30.2652 9.5 30C9.5 29.7348 9.60536 29.4804 9.79289 29.2929C9.98043 29.1054 10.2348 29 10.5 29C11.0302 28.9994 11.5386 28.7885 11.9135 28.4135C12.2885 28.0386 12.4994 27.5303 12.5 27V22H11C10.4698 22.0006 9.9614 22.2115 9.58646 22.5865C9.21151 22.9614 9.00061 23.4698 9 24V25C8.99879 26.0605 8.57697 27.0772 7.82709 27.8271C7.0772 28.577 6.06049 28.9988 5 29C4.73478 29 4.48043 28.8946 4.29289 28.7071C4.10536 28.5196 4 28.2652 4 28C4 27.7348 4.10536 27.4804 4.29289 27.2929C4.48043 27.1054 4.73478 27 5 27C5.53025 26.9994 6.0386 26.7885 6.41354 26.4135C6.78849 26.0386 6.99939 25.5303 7 25V24C7.00039 23.3285 7.16985 22.6679 7.49275 22.0792C7.81564 21.4904 8.28158 20.9924 8.8476 20.6312C7.96488 19.9813 7.24726 19.1331 6.75262 18.155C6.25798 17.1768 6.00018 16.0961 6 15V14C6.01208 12.7571 6.34328 11.5381 6.96185 10.46C6.6558 9.47404 6.55752 8.43537 6.6732 7.40953C6.78889 6.3837 7.11603 5.393 7.63397 4.5C7.72173 4.34798 7.84797 4.22173 7.99999 4.13396C8.15201 4.04619 8.32446 3.99999 8.5 4C9.66491 3.9974 10.8143 4.26733 11.8563 4.78822C12.8982 5.3091 13.8039 6.0665 14.5009 6.99988L17.499 7C18.196 6.06658 19.1017 5.30914 20.1437 4.78824C21.1857 4.26733 22.3351 3.99739 23.5 4C23.6755 3.99999 23.848 4.04619 24 4.13396C24.152 4.22173 24.2783 4.34798 24.366 4.5C24.884 5.393 25.2111 6.3837 25.3268 7.40954C25.4425 8.43537 25.3442 9.47405 25.0381 10.46C25.6567 11.5381 25.9879 12.7571 26 14V15C25.9998 16.0961 25.742 17.1768 25.2474 18.155C24.7527 19.1331 24.0351 19.9813 23.1524 20.6312C23.7184 20.9924 24.1844 21.4904 24.5073 22.0792C24.8301 22.6679 24.9996 23.3285 25 24V25C25.0006 25.5303 25.2115 26.0386 25.5865 26.4135C25.9614 26.7885 26.4698 26.9994 27 27C27.2652 27 27.5196 27.1054 27.7071 27.2929C27.8946 27.4804 28 27.7348 28 28V28Z" fill="#4D5566"/>
</svg>
