<svg width="32" height="32" viewBox="0 0 32 32" fill="none" xmlns="http://www.w3.org/2000/svg">
<path d="M31.3094 15.1611C31.1776 14.9308 31.0006 14.7293 30.7892 14.5688C30.5778 14.4082 30.3363 14.2919 30.079 14.2267C28.9368 13.9447 27.7538 13.8663 26.5844 13.9951C26.8921 12.2934 26.7836 10.5426 26.2679 8.89196C26.1161 8.42128 25.7949 8.02376 25.3666 7.77649C24.9383 7.52922 24.4335 7.44983 23.95 7.55371C22.7909 7.81004 21.6847 8.26442 20.6802 8.89685C19.8781 7.20862 18.6851 5.73591 17.2001 4.60083C16.8543 4.34002 16.433 4.19895 15.9999 4.19897C15.5668 4.199 15.1454 4.34011 14.7997 4.60095C13.3148 5.73598 12.1218 7.20865 11.3198 8.89684C10.3153 8.26445 9.20926 7.81007 8.05029 7.5537C7.56673 7.44989 7.06184 7.52933 6.63352 7.77661C6.2052 8.02389 5.88395 8.4214 5.73205 8.89208C5.21642 10.5426 5.10786 12.2934 5.41565 13.995C4.24621 13.8661 3.0632 13.9445 1.92102 14.2267C1.66408 14.2928 1.42292 14.4095 1.21163 14.5699C1.00035 14.7304 0.823201 14.9314 0.690554 15.1611C0.557906 15.3909 0.472427 15.6448 0.439121 15.908C0.405814 16.1712 0.42535 16.4384 0.496583 16.694C0.938843 18.2756 2.29254 21.2821 6.38879 23.6472C10.4596 25.9974 14.0571 26 15.9933 26C15.9952 26 15.9971 26.0002 15.999 26.0002L16 26.0002L16.001 26.0002C16.0029 26.0002 16.0048 26 16.0067 26C17.9429 26 21.5404 25.9974 25.6112 23.6471C29.7075 21.2821 31.0612 18.2756 31.5034 16.694C31.5756 16.4385 31.5957 16.1712 31.5623 15.9078C31.529 15.6445 31.443 15.3905 31.3094 15.1611ZM16.0038 6.20348C17.2053 7.10058 20 9.75353 20 15C20 20.2465 17.2053 22.8994 16.004 23.7964C16.0034 23.7969 16.0028 23.7973 16.0021 23.7976C16.0015 23.7979 16.0007 23.798 16 23.798C15.9993 23.798 15.9985 23.7979 15.9978 23.7976C15.9972 23.7973 15.9965 23.7969 15.996 23.7964C14.7944 22.899 12 20.2461 12 15C12 9.75353 14.7947 7.10058 16.0038 6.20348ZM2.41772 16.1639C3.57994 15.8852 4.78863 15.8605 5.96124 16.0917C6.28146 16.999 6.6861 17.8742 7.16986 18.7058C8.24643 20.5544 9.65667 22.1872 11.329 23.5212C9.94688 23.1729 8.62054 22.6323 7.3888 21.9152C3.90716 19.9049 2.78295 17.4436 2.41772 16.1639ZM24.6112 21.915C23.3795 22.6322 22.0532 23.1729 20.6711 23.5212C22.3433 22.1871 23.7536 20.5544 24.8301 18.7058C25.3139 17.8742 25.7185 16.999 26.0388 16.0917C27.2095 15.8624 28.4156 15.8841 29.5774 16.1554C29.217 17.4436 28.0928 19.9049 24.6112 21.915Z" fill="#4D5566"/>
</svg>
